<svg width="142" height="13" viewBox="0 0 142 13" fill="none" xmlns="http://www.w3.org/2000/svg">
<path d="M7.26 13H0.72C0.44 13 0.3 12.86 0.3 12.58V0.559999C0.3 0.28 0.44 0.14 0.72 0.14H7.26C7.52667 0.14 7.66 0.28 7.66 0.559999V1.92C7.66 2.2 7.52667 2.34 7.26 2.34H3.08C2.92 2.34 2.84 2.41333 2.84 2.56V5.16C2.84 5.30667 2.92 5.38 3.08 5.38H6.5C6.78 5.38 6.92 5.52 6.92 5.8V7.16C6.92 7.44 6.78 7.58 6.5 7.58H3.08C2.92 7.58 2.84 7.65333 2.84 7.8V10.58C2.84 10.7267 2.92 10.8 3.08 10.8H7.26C7.52667 10.8 7.66 10.94 7.66 11.22V12.58C7.66 12.86 7.52667 13 7.26 13ZM11.3503 9.72V9.32C11.3503 9.04 11.4903 8.9 11.7703 8.9H13.4703C13.7503 8.9 13.8903 9.04 13.8903 9.32V9.48C13.8903 9.98667 13.9903 10.3333 14.1903 10.52C14.3903 10.7067 14.757 10.8 15.2903 10.8H16.2303C16.7503 10.8 17.1103 10.7 17.3103 10.5C17.5236 10.3 17.6303 9.92667 17.6303 9.38V9.14C17.6303 8.75333 17.4703 8.46 17.1503 8.26C16.8436 8.04667 16.457 7.92 15.9903 7.88C15.5236 7.84 15.017 7.76667 14.4703 7.66C13.937 7.54 13.437 7.39333 12.9703 7.22C12.5036 7.03333 12.1103 6.68 11.7903 6.16C11.4836 5.62667 11.3303 4.94667 11.3303 4.12V3.42C11.3303 2.38 11.6236 1.57333 12.2103 1C12.797 0.426666 13.6103 0.14 14.6503 0.14H16.6503C17.7036 0.14 18.5236 0.426666 19.1103 1C19.697 1.57333 19.9903 2.38 19.9903 3.42V3.8C19.9903 4.08 19.8503 4.22 19.5703 4.22H17.8703C17.5903 4.22 17.4503 4.08 17.4503 3.8V3.68C17.4503 3.16 17.3503 2.80667 17.1503 2.62C16.9503 2.43333 16.5836 2.34 16.0503 2.34H15.2703C14.7236 2.34 14.3503 2.44667 14.1503 2.66C13.9636 2.86 13.8703 3.26 13.8703 3.86V4.24C13.8703 4.86667 14.417 5.22667 15.5103 5.32C16.6436 5.41333 17.6503 5.64 18.5303 6C18.997 6.2 19.3836 6.56 19.6903 7.08C20.0103 7.58667 20.1703 8.24 20.1703 9.04V9.72C20.1703 10.76 19.877 11.5667 19.2903 12.14C18.7036 12.7133 17.8903 13 16.8503 13H14.6703C13.6303 13 12.817 12.7133 12.2303 12.14C11.6436 11.5667 11.3503 10.76 11.3503 9.72ZM26.3716 13H24.6716C24.3916 13 24.2516 12.86 24.2516 12.58V0.559999C24.2516 0.28 24.3916 0.14 24.6716 0.14H29.5516C30.5916 0.14 31.3982 0.426666 31.9716 1C32.5449 1.56 32.8316 2.36 32.8316 3.4V5.32C32.8316 6.36 32.5449 7.16667 31.9716 7.74C31.3982 8.3 30.5916 8.58 29.5516 8.58H27.0316C26.8716 8.58 26.7916 8.65333 26.7916 8.8V12.58C26.7916 12.86 26.6516 13 26.3716 13ZM27.0116 6.36H29.1316C29.5582 6.36 29.8582 6.27333 30.0316 6.1C30.2049 5.91333 30.2916 5.61333 30.2916 5.2V3.52C30.2916 3.09333 30.2049 2.79333 30.0316 2.62C29.8582 2.43333 29.5582 2.34 29.1316 2.34H27.0116C26.8649 2.34 26.7916 2.41333 26.7916 2.56V6.14C26.7916 6.28667 26.8649 6.36 27.0116 6.36ZM40.157 10.8H41.577C42.0037 10.8 42.3037 10.7133 42.477 10.54C42.6637 10.3533 42.757 10.0467 42.757 9.62V3.52C42.757 3.09333 42.6637 2.79333 42.477 2.62C42.3037 2.43333 42.0037 2.34 41.577 2.34H40.157C39.7304 2.34 39.4304 2.43333 39.257 2.62C39.0837 2.79333 38.997 3.09333 38.997 3.52V9.62C38.997 10.0467 39.0837 10.3533 39.257 10.54C39.4304 10.7133 39.7304 10.8 40.157 10.8ZM41.997 13H39.757C38.7037 13 37.8904 12.72 37.317 12.16C36.7437 11.6 36.457 10.7933 36.457 9.74V3.4C36.457 2.34667 36.7437 1.54 37.317 0.98C37.8904 0.42 38.7037 0.14 39.757 0.14H41.997C43.0504 0.14 43.8637 0.42 44.437 0.98C45.0104 1.54 45.297 2.34667 45.297 3.4V9.74C45.297 10.7933 45.0104 11.6 44.437 12.16C43.8637 12.72 43.0504 13 41.997 13ZM51.6122 13H49.9122C49.6322 13 49.4922 12.86 49.4922 12.58V0.559999C49.4922 0.28 49.6322 0.14 49.9122 0.14H54.6722C55.7122 0.14 56.5255 0.426666 57.1122 1C57.6989 1.57333 57.9922 2.38 57.9922 3.42V4.98C57.9922 6.48667 57.3989 7.48667 56.2122 7.98V8.06L58.3522 12.52C58.4722 12.84 58.3589 13 58.0122 13H56.3922C56.1522 13 55.9789 12.9733 55.8722 12.92C55.7655 12.8667 55.6789 12.7533 55.6122 12.58L53.6122 8.26H52.2722C52.1122 8.26 52.0322 8.33333 52.0322 8.48V12.58C52.0322 12.86 51.8922 13 51.6122 13ZM52.2522 6.22H54.2122C54.6389 6.22 54.9522 6.13333 55.1522 5.96C55.3522 5.77333 55.4522 5.48 55.4522 5.08V3.52C55.4522 3.10667 55.3522 2.80667 55.1522 2.62C54.9522 2.43333 54.6389 2.34 54.2122 2.34H52.2522C52.1055 2.34 52.0322 2.41333 52.0322 2.56V6C52.0322 6.14667 52.1055 6.22 52.2522 6.22ZM66.2097 13H64.5297C64.2364 13 64.0897 12.86 64.0897 12.58V2.56C64.0897 2.41333 64.0164 2.34 63.8697 2.34H61.5897C61.3097 2.34 61.1697 2.2 61.1697 1.92V0.559999C61.1697 0.28 61.3097 0.14 61.5897 0.14H69.1497C69.4297 0.14 69.5697 0.28 69.5697 0.559999V1.92C69.5697 2.2 69.4297 2.34 69.1497 2.34H66.8697C66.7097 2.34 66.6297 2.41333 66.6297 2.56V12.58C66.6297 12.86 66.4897 13 66.2097 13ZM79.8569 13H73.3169C73.0369 13 72.8969 12.86 72.8969 12.58V0.559999C72.8969 0.28 73.0369 0.14 73.3169 0.14H79.8569C80.1235 0.14 80.2569 0.28 80.2569 0.559999V1.92C80.2569 2.2 80.1235 2.34 79.8569 2.34H75.6769C75.5169 2.34 75.4369 2.41333 75.4369 2.56V5.16C75.4369 5.30667 75.5169 5.38 75.6769 5.38H79.0969C79.3769 5.38 79.5169 5.52 79.5169 5.8V7.16C79.5169 7.44 79.3769 7.58 79.0969 7.58H75.6769C75.5169 7.58 75.4369 7.65333 75.4369 7.8V10.58C75.4369 10.7267 75.5169 10.8 75.6769 10.8H79.8569C80.1235 10.8 80.2569 10.94 80.2569 11.22V12.58C80.2569 12.86 80.1235 13 79.8569 13ZM92.5417 13H90.8817C90.6017 13 90.4617 12.86 90.4617 12.58V0.559999C90.4617 0.28 90.6017 0.14 90.8817 0.14H92.3817C92.6617 0.14 92.8484 0.233333 92.9417 0.42L96.9817 8H97.0617V0.559999C97.0617 0.28 97.2017 0.14 97.4817 0.14H99.1417C99.4217 0.14 99.5617 0.28 99.5617 0.559999V12.58C99.5617 12.86 99.4217 13 99.1417 13H97.6817C97.3884 13 97.1751 12.8667 97.0417 12.6L93.0417 5.16H92.9617V12.58C92.9617 12.86 92.8217 13 92.5417 13ZM110.921 13H104.381C104.101 13 103.961 12.86 103.961 12.58V0.559999C103.961 0.28 104.101 0.14 104.381 0.14H110.921C111.188 0.14 111.321 0.28 111.321 0.559999V1.92C111.321 2.2 111.188 2.34 110.921 2.34H106.741C106.581 2.34 106.501 2.41333 106.501 2.56V5.16C106.501 5.30667 106.581 5.38 106.741 5.38H110.161C110.441 5.38 110.581 5.52 110.581 5.8V7.16C110.581 7.44 110.441 7.58 110.161 7.58H106.741C106.581 7.58 106.501 7.65333 106.501 7.8V10.58C106.501 10.7267 106.581 10.8 106.741 10.8H110.921C111.188 10.8 111.321 10.94 111.321 11.22V12.58C111.321 12.86 111.188 13 110.921 13ZM119.771 13H116.971C116.678 13 116.511 12.86 116.471 12.58L114.331 0.559999C114.291 0.28 114.431 0.14 114.751 0.14H116.831C117.138 0.14 117.298 0.28 117.311 0.559999L118.471 10.42H118.611L120.531 0.5C120.571 0.26 120.711 0.14 120.951 0.14H123.191C123.445 0.14 123.591 0.253333 123.631 0.479999L125.591 10.42H125.751L126.891 0.579999C126.905 0.286666 127.065 0.14 127.371 0.14H129.451C129.771 0.14 129.911 0.286666 129.871 0.579999L127.711 12.58C127.671 12.86 127.518 13 127.251 13H124.431C124.151 13 123.991 12.86 123.951 12.58L122.151 3.2H122.071L120.251 12.58C120.198 12.86 120.038 13 119.771 13ZM132.944 9.72V9.32C132.944 9.04 133.084 8.9 133.364 8.9H135.064C135.344 8.9 135.484 9.04 135.484 9.32V9.48C135.484 9.98667 135.584 10.3333 135.784 10.52C135.984 10.7067 136.351 10.8 136.884 10.8H137.824C138.344 10.8 138.704 10.7 138.904 10.5C139.117 10.3 139.224 9.92667 139.224 9.38V9.14C139.224 8.75333 139.064 8.46 138.744 8.26C138.437 8.04667 138.051 7.92 137.584 7.88C137.117 7.84 136.611 7.76667 136.064 7.66C135.531 7.54 135.031 7.39333 134.564 7.22C134.097 7.03333 133.704 6.68 133.384 6.16C133.077 5.62667 132.924 4.94667 132.924 4.12V3.42C132.924 2.38 133.217 1.57333 133.804 1C134.391 0.426666 135.204 0.14 136.244 0.14H138.244C139.297 0.14 140.117 0.426666 140.704 1C141.291 1.57333 141.584 2.38 141.584 3.42V3.8C141.584 4.08 141.444 4.22 141.164 4.22H139.464C139.184 4.22 139.044 4.08 139.044 3.8V3.68C139.044 3.16 138.944 2.80667 138.744 2.62C138.544 2.43333 138.177 2.34 137.644 2.34H136.864C136.317 2.34 135.944 2.44667 135.744 2.66C135.557 2.86 135.464 3.26 135.464 3.86V4.24C135.464 4.86667 136.011 5.22667 137.104 5.32C138.237 5.41333 139.244 5.64 140.124 6C140.591 6.2 140.977 6.56 141.284 7.08C141.604 7.58667 141.764 8.24 141.764 9.04V9.72C141.764 10.76 141.471 11.5667 140.884 12.14C140.297 12.7133 139.484 13 138.444 13H136.264C135.224 13 134.411 12.7133 133.824 12.14C133.237 11.5667 132.944 10.76 132.944 9.72Z" fill="black"/>
</svg>
