<svg xmlns="http://www.w3.org/2000/svg" width="267" height="347" viewBox="0 0 267 347" fill="none">
<path opacity="0.1" d="M245.585 181.624C236.851 185.567 229.904 187.207 229.904 187.207L225.008 205.81C228.636 212.748 232.452 218.713 233.982 228.129C244.53 217.468 248.107 198.598 245.585 181.624ZM223.463 240.888C223.463 240.888 224.054 232.833 219.746 224.012L205.455 220.544C205.455 220.544 182.019 231.441 170.243 228.689C170.243 228.689 173.551 242.069 175.176 249.032C181.96 249.38 194.585 247.474 200.523 243.532C200.523 243.532 200.999 253.79 197.443 264.797C204.798 262.906 216.226 255.478 223.463 240.888ZM214.155 202.427L219.089 183.906C219.089 183.906 211.311 178.983 204.092 169.714C185.186 167.516 158.383 179.442 158.383 179.442C158.383 179.442 162.136 195.189 166.301 212.214C180.09 217.998 205.897 206.036 214.156 202.427L214.155 202.427ZM242.009 292.518L233.688 276.757C221.205 309.986 196.288 334.363 159.366 346.128L159.481 326.432C127.692 338.088 78.52 337.997 44.9131 305.705C56.333 282.682 67.2872 259.189 65.8691 227.165C35.2102 254.255 12.4308 261.985 12.4308 261.985C4.14445 233.898 18.442 185.838 26.6632 172.766L0.126745 173.596C4.48582 157.327 25.7539 126.035 48.3653 111.315L33.6739 104.813L33.6587 104.809C49.637 86.8555 69.9817 73.1413 92.6118 64.8093L92.6425 64.8012C84.5729 72.0632 78.6756 93.741 93.2039 106.482C89.3497 92.4366 92.5145 77.2028 102.021 71.4212C111.547 65.5723 123.316 71.6079 129.664 79.8223C129.106 72.4101 124.435 62.0223 114.17 58.6523L114.155 58.6482C136.479 54.0528 160.31 54.487 183.95 60.8214C188.367 62.0048 192.719 63.3726 196.924 64.9028C203.076 69.4333 210.635 81.5748 213.767 88.7112C213.767 88.7112 215.953 81.8758 214.247 72.4555C238.219 85.3922 247.713 98.8157 251.522 105.081C249.681 116.145 251.261 123.5 252.89 134.917C247.021 123.646 230.094 103.461 221.08 97.2994C221.08 97.2994 217.762 106.425 213.136 109.999C197.051 90.7599 188.262 84.6438 188.262 84.6438C165.698 81.8544 149.513 86.2793 140.187 90.6684L145.338 97.9423C131.175 98.3552 119.721 107.045 119.721 107.045C119.763 107.272 130.951 111.999 130.951 111.999C130.951 111.999 126.201 124.978 141.053 137.892C153.783 148.955 177.203 145.734 194.945 158.788C185.844 140.642 178.587 131.68 178.587 131.68C178.587 131.68 173.693 129.245 170.042 128.295C165.481 127.102 158.457 126.156 151.775 121.34C148.578 119.028 145.065 115.522 142.341 112.659C142.341 112.659 153.944 105.955 167.858 107.521C167.858 107.521 179.033 114.061 186.739 123.503C194.701 119.181 201.275 121.144 201.275 121.144C201.275 121.144 193.106 125.354 193.156 133.12C200.473 143.957 207.646 158.589 207.646 158.589C219.695 155.794 242.272 163.227 245.552 169.812C241.611 160.672 234.699 152.076 229.488 144.916C229.43 141.874 224.808 130.087 223.825 128.844C223.825 128.844 230.171 132.763 234.895 139.808C237.321 137.821 241.303 136.207 246.111 136.314C249.732 141.348 249 147.391 248.617 148.326C245.881 150.201 243.544 150.642 243.544 150.642L251.563 165.428L254.947 157.271C271.098 200.002 274.024 245.226 242.005 292.515L242.009 292.518ZM99.3983 11.2637C112.472 21.8709 119.767 32.7888 121.164 34.532C121.379 30.5836 123.273 11.8104 124.583 0.186581C131.669 8.35367 148.111 27.3134 153.54 33.4946C158.396 26.1353 174.797 2.24282 174.797 2.24282C174.797 2.24282 184.535 33.3556 186.263 38.4442C190.744 35.7974 216.748 19.3484 223.445 15.2204C220.946 28.0243 217.316 46.3181 216.896 49.1019C218.26 48.0408 228.799 39.5671 244.331 33.3248C235.846 42.5794 229.191 56.7051 224.809 68.3127C213.011 61.4479 200.08 55.9945 186.251 52.2892C159.685 45.1708 132.911 45.2881 108.138 51.4608C107.305 38.8884 105.004 22.9106 99.3983 11.2637Z" fill="black"/>
</svg>